<svg aria-hidden="true" style="position: absolute; width: 0; height: 0; overflow: hidden;" version="1.1" xmlns="http://www.w3.org/2000/svg" xmlns:xlink="http://www.w3.org/1999/xlink">
<defs>
<symbol id="mail" viewBox="0 0 32 32">
<path fill="none" stroke="#9da4bd" style="stroke: var(--color1, #9da4bd)" stroke-linejoin="round" stroke-linecap="round" stroke-miterlimit="4" stroke-width="1.3333" d="M6.404 6.671h19.212c1.321 0 2.402 1.050 2.402 2.335v14.009c0 1.284-1.081 2.335-2.402 2.335h-19.212c-1.321 0-2.402-1.051-2.402-2.335v-14.009c0-1.285 1.081-2.335 2.402-2.335z"></path>
<path fill="none" stroke="#9da4bd" style="stroke: var(--color1, #9da4bd)" stroke-linejoin="round" stroke-linecap="round" stroke-miterlimit="4" stroke-width="1.3333" d="M26.684 9.339l-10.674 8.005-10.674-8.005"></path>
</symbol>
<symbol id="map-pin" viewBox="0 0 32 32">
<path fill="none" stroke="#fdb038" style="stroke: var(--color1, #fdb038)" stroke-linejoin="round" stroke-linecap="round" stroke-miterlimit="4" stroke-width="1.3333" d="M26.684 13.828c0 7.64-10.674 14.191-10.674 14.191s-10.674-6.551-10.674-14.191c0-5.426 4.779-9.825 10.674-9.825s10.674 4.399 10.674 9.825v0z"></path>
<path fill="none" stroke="#fdb038" style="stroke: var(--color1, #fdb038)" stroke-linejoin="round" stroke-linecap="round" stroke-miterlimit="4" stroke-width="1.3333" d="M16.010 18.679c2.211 0 4.003-1.792 4.003-4.003s-1.792-4.003-4.003-4.003v0c-2.211 0-4.003 1.792-4.003 4.003s1.792 4.003 4.003 4.003v0z"></path>
</symbol>
<symbol id="phone" viewBox="0 0 32 32">
<path fill="none" stroke="#9da4bd" style="stroke: var(--color1, #9da4bd)" stroke-linejoin="round" stroke-linecap="round" stroke-miterlimit="4" stroke-width="1.3333" d="M26.684 21.351v3.219c0 0.003 0 0.007 0 0.010 0 1.186-0.961 2.147-2.147 2.147-0.068 0-0.136-0.003-0.202-0.009l0.009 0.001c-3.484-0.388-6.63-1.564-9.344-3.345l0.081 0.050c-2.61-1.676-4.765-3.83-6.39-6.357l-0.050-0.083c-1.737-2.645-2.914-5.807-3.287-9.211l-0.008-0.095c-0.006-0.058-0.009-0.125-0.009-0.193 0-1.185 0.961-2.146 2.146-2.147h3.221c0.006-0 0.013-0 0.020-0 1.080 0 1.973 0.797 2.124 1.835l0.001 0.012c0.136 1.030 0.387 2.041 0.751 3.015 0.295 0.784 0.107 1.669-0.483 2.265l-1.364 1.362c1.556 2.702 3.738 4.885 6.357 6.396l0.083 0.044 1.364-1.362c0.388-0.383 0.921-0.62 1.51-0.62 0.271 0 0.53 0.050 0.769 0.142l-0.015-0.005c0.974 0.363 1.985 0.614 3.015 0.751 1.050 0.151 1.849 1.046 1.849 2.126 0 0.019-0 0.037-0.001 0.056l0-0.003z"></path>
</symbol>
</defs>
</svg>